<?xml version="1.0" encoding="utf-8"?>
<!-- Generator: Adobe Illustrator 24.0.0, SVG Export Plug-In . SVG Version: 6.00 Build 0)  -->
<svg version="1.1" id="Layer_1" xmlns="http://www.w3.org/2000/svg" xmlns:xlink="http://www.w3.org/1999/xlink" x="0px" y="0px"
	 viewBox="0 0 256 256" enable-background="new 0 0 256 256" xml:space="preserve">
<g>
</g>
<g>
	<path fill="#8B71E7" d="M127.793,87.549c-4.11,4.11-7.34,7.34-9.21,9.21c-1.17,1.17-1.17,3.07,0,4.24l0.91,0.91
		c-2.88,2.89-14.61,14.61-30.66,30.66L7.719,51.454c-1.953-1.953-1.953-5.118,0-7.071L42.638,9.464c1.953-1.953,5.118-1.953,7.071,0
		l73.134,73.134L127.793,87.549z"/>
	<path fill="#8B71E7" d="M245.728,212.554l-34.919,34.919c-1.953,1.953-5.118,1.953-7.071,0l-74.734-74.734l-4.95-4.95
		c15.91-15.91,29.05-29.04,30.66-30.66l0.91,0.91c1.171,1.171,3.069,1.171,4.24,0l7.44-7.44l1.77-1.77l76.654,76.655
		C247.68,207.436,247.68,210.602,245.728,212.554z"/>
	<path fill="#EEEEEE" d="M27.604,241.957l-9.18,3.881l-7.267,3.069c-2.174,0.923-4.375-1.278-3.452-3.452l3.079-7.258l3.881-9.18
		L27.604,241.957z"/>
	<path fill="#AFAFAF" d="M155.621,138.04l-37.038-37.038c-1.172-1.172-1.172-3.071,0-4.243l74.087-74.087
		c1.953-1.953,5.118-1.953,7.071,0l34.21,34.21c1.953,1.953,1.953,5.118,0,7.071l-74.087,74.087
		C158.692,139.211,156.793,139.211,155.621,138.04z"/>
	<path fill="#7256DF" d="M127.793,87.549c-4.11,4.11-7.34,7.34-9.21,9.21c-1.17,1.17-1.17,3.07,0,4.24l0.91,0.91
		c-2.88,2.89-14.61,14.61-30.66,30.66l-4.95-4.95c14.53-14.53,26.07-26.08,26.98-26.98c-0.55-3.11,0.37-6.43,2.77-8.83l9.21-9.21
		L127.793,87.549z"/>
	<path fill="#7256DF" d="M174.023,133.779l-9.21,9.21c-2.37,2.37-5.65,3.34-8.83,2.77c-0.88,0.87-12.43,12.43-26.98,26.98
		l-4.95-4.95c15.91-15.91,29.05-29.04,30.66-30.66l0.91,0.91c1.17,1.17,3.07,1.17,4.24,0l7.44-7.44l1.77-1.77L174.023,133.779z"/>
	<path fill="#71C1E8" d="M233.953,63.949l-64.88,64.88l-1.77,1.77l-7.44,7.44c-1.17,1.17-3.07,1.17-4.24,0l-0.91-0.91
		c-1.61,1.62-14.75,14.75-30.66,30.66c-25.83,25.83-58.95,58.95-61.91,61.91l-31.37,14.22c-0.5,0.22-1.09,0.12-1.48-0.27
		l-16.32-16.32c-0.39-0.39-0.49-0.98-0.27-1.48l14.22-31.37c21.91-21.91,44.47-44.47,61.91-61.91
		c16.05-16.05,27.78-27.77,30.66-30.66l-0.91-0.91c-1.17-1.17-1.17-3.07,0-4.24c1.87-1.87,5.1-5.1,9.21-9.21l64.88-64.88
		c1.95-1.95,5.11-1.95,7.07,0l34.21,34.21C235.903,58.839,235.903,61.999,233.953,63.949z"/>
	<path fill="#EFBF27" d="M245.193,40.419l-8.9,8.9l-4.95,4.96l-29-29l4.96-4.95l8.9-8.9c6.07-6.07,15.91-6.07,21.98,0l7.01,7.01
		C251.263,24.509,251.263,34.349,245.193,40.419z"/>
	<polygon fill="#E7A523" points="236.293,49.319 231.343,54.279 202.343,25.279 207.303,20.329 	"/>
	<polygon fill="#AFAFAF" points="27.604,241.957 18.424,245.838 10.784,238.198 14.665,229.018 	"/>
	<path fill="#EEEEEE" d="M62.139,229.699l-31.364,14.215c-0.5,0.227-1.089,0.12-1.478-0.269l-16.321-16.321
		c-0.388-0.388-0.496-0.977-0.269-1.478l14.215-31.364L62.139,229.699z"/>
	<polygon fill="#EFBF27" points="154.71,137.128 148.18,143.659 142.583,149.256 107.366,114.039 112.963,108.442 119.494,101.912 	
		"/>
	<path d="M125.564,224.776c-1.002-4.322-1.665-7.177-7.496-9.104c-2.284-0.754-2.279-3.995,0-4.748
		c3.51-1.16,5.83-1.926,7.496-9.104c0.595-2.566,4.273-2.573,4.87,0c1.697,7.309,4.214,8.029,7.497,9.104
		c2.284,0.754,2.279,3.995,0,4.748c-3.511,1.16-5.831,1.926-7.496,9.104C129.836,227.354,126.163,227.354,125.564,224.776z"/>
	<path fill="#F0C020" d="M131.269,213.321c-1.2,0.87-2.28,2.02-3.23,3.62c-0.8-1.28-1.88-2.51-3.41-3.59
		c1.26-0.9,2.39-2.09,3.38-3.79C128.999,211.281,130.109,212.461,131.269,213.321z"/>
	<path d="M218.279,143.626c-1.002-4.322-1.665-7.177-7.496-9.104c-2.284-0.754-2.279-3.995,0-4.748
		c3.51-1.16,5.83-1.926,7.496-9.104c0.595-2.566,4.273-2.573,4.87,0c1.697,7.309,4.214,8.029,7.497,9.104
		c2.284,0.754,2.279,3.995,0,4.748c-3.511,1.16-5.831,1.926-7.496,9.104C222.551,146.204,218.878,146.204,218.279,143.626z"/>
	<path fill="#F0C020" d="M223.984,132.171c-1.2,0.87-2.28,2.02-3.23,3.62c-0.8-1.28-1.88-2.51-3.41-3.59
		c1.26-0.9,2.39-2.09,3.38-3.79C221.714,130.131,222.824,131.311,223.984,132.171z"/>
	<path d="M32.85,143.626c-1.002-4.322-1.665-7.177-7.496-9.104c-2.284-0.754-2.279-3.995,0-4.748c3.51-1.16,5.83-1.926,7.496-9.104
		c0.595-2.566,4.273-2.573,4.87,0c1.697,7.309,4.214,8.029,7.497,9.104c2.284,0.754,2.279,3.995,0,4.748
		c-3.511,1.16-5.831,1.926-7.496,9.104C37.122,146.204,33.449,146.204,32.85,143.626z"/>
	<path fill="#F0C020" d="M38.555,132.171c-1.2,0.87-2.28,2.02-3.23,3.62c-0.8-1.28-1.88-2.51-3.41-3.59
		c1.26-0.9,2.39-2.09,3.38-3.79C36.285,130.131,37.395,131.311,38.555,132.171z"/>
	<path d="M125.564,54.174c-1.002-4.322-1.665-7.177-7.496-9.104c-2.284-0.754-2.279-3.995,0-4.748c3.51-1.16,5.83-1.926,7.496-9.104
		c0.595-2.566,4.273-2.573,4.87,0c1.697,7.309,4.214,8.029,7.497,9.104c2.284,0.754,2.279,3.995,0,4.748
		c-3.511,1.16-5.831,1.926-7.496,9.104C129.836,56.752,126.163,56.752,125.564,54.174z"/>
	<path fill="#F0C020" d="M131.269,42.719c-1.2,0.87-2.28,2.02-3.23,3.62c-0.8-1.28-1.88-2.51-3.41-3.59
		c1.26-0.9,2.39-2.09,3.38-3.79C128.999,40.679,130.109,41.859,131.269,42.719z"/>
	<path fill="#B8A4FD" d="M87.066,120.195l-2.121-2.121c-0.977-0.976-0.977-2.559,0-3.535c0.976-0.977,2.56-0.977,3.535,0
		l2.121,2.121c0.977,0.976,0.977,2.559,0,3.535C89.625,121.171,88.042,121.171,87.066,120.195z M77.874,111.002L16.558,49.687
		c-0.977-0.976-0.977-2.559,0-3.535c0.976-0.977,2.56-0.977,3.535,0l61.315,61.316c0.977,0.976,0.977,2.559,0,3.535
		C80.433,111.979,78.849,111.979,77.874,111.002z"/>
	<path fill="#B8A4FD" d="M205.506,238.634l-69.077-69.077c-0.977-0.976-0.977-2.559,0-3.535c0.977-0.977,2.559-0.977,3.535,0
		l67.31,67.309l16.889-16.887c0.977-0.977,2.559-0.977,3.535,0c0.977,0.976,0.977,2.559,0,3.535l-18.656,18.655
		C208.064,239.611,206.482,239.611,205.506,238.634z M231.233,212.908c-0.977-0.976-0.977-2.559,0-3.535l2.121-2.121
		c0.977-0.977,2.559-0.977,3.535,0c0.977,0.976,0.977,2.559,0,3.535l-2.121,2.121C233.792,213.884,232.21,213.884,231.233,212.908z"
		/>
	<path fill="#C4E4FD" d="M61.163,216.537c-0.977-0.976-0.977-2.559,0-3.535l56.31-56.309c0.976-0.977,2.56-0.977,3.535,0
		c0.977,0.976,0.977,2.559,0,3.535l-56.31,56.309C63.723,217.514,62.139,217.514,61.163,216.537z M126.312,153.89
		c-0.64,0-1.28-0.244-1.768-0.732c-0.977-0.976-0.977-2.559,0-3.535l2.121-2.121c0.976-0.977,2.559-0.977,3.535,0
		c0.977,0.976,0.977,2.559,0,3.535l-2.121,2.121C127.591,153.646,126.951,153.89,126.312,153.89z"/>
	<path fill="#C4E4FD" d="M155.977,127.783c-0.977-0.976-0.977-2.559,0-3.535l56.409-56.409c0.977-0.977,2.559-0.977,3.535,0
		c0.977,0.976,0.977,2.559,0,3.535l-56.409,56.409C158.535,128.76,156.953,128.76,155.977,127.783z M219.457,64.303
		c-0.977-0.976-0.977-2.559,0-3.535l2.121-2.121c0.977-0.977,2.559-0.977,3.535,0c0.977,0.976,0.977,2.559,0,3.535l-2.121,2.121
		C222.016,65.279,220.434,65.279,219.457,64.303z"/>
	<path d="M162.35,56.53c0.968-0.968,0.98-2.549,0-3.53c-0.95-0.95-2.6-0.95-3.54,0c-0.982,0.982-0.962,2.568,0,3.53
		C159.754,57.473,161.325,57.535,162.35,56.53z"/>
	<path d="M246.961,16.671l-7.01-7.011c-7.035-7.034-18.48-7.034-25.516,0l-12.087,12.078L201.51,20.9
		c-2.998-2.978-7.728-2.862-10.61,0l-25.02,25.02c-0.97,0.98-0.97,2.56,0,3.54c0.939,0.94,2.59,0.94,3.54,0v-0.01l25.02-25.01
		c1.008-1.007,2.596-0.945,3.54,0c0,0,33.359,33.359,34.21,34.21c0.951,0.949,0.995,2.526-0.01,3.53l-74.08,74.09
		c-0.189,0.189-0.494,0.214-0.71,0l-37.04-37.04c-0.201-0.202-0.175-0.542,0-0.7c6.556-6.558,28.36-28.369,34.92-34.93
		c0.98-0.97,0.98-2.56,0-3.53c-0.939-0.95-2.59-0.95-3.529,0l-23.95,23.94L51.477,7.697c-2.924-2.925-7.683-2.925-10.606,0
		L5.951,42.616c-2.924,2.924-2.924,7.682,0,10.606l79.348,79.349c-17.184,17.184-38.957,38.957-60.14,60.14
		c-0.157,0.157-0.396,0.476-0.51,0.74c-0.262,0.577-14.188,31.218-14.373,31.824c-0.6,1.928,0.24,3.132,1.428,4.321l-6.302,14.883
		c-1.798,4.235,2.495,8.528,6.726,6.732l14.896-6.294c1.368,1.367,2.787,2.12,4.754,1.294l31.4-14.23
		c0.274-0.132,0.599-0.379,0.73-0.51c20.058-20.058,39.263-39.272,60.145-60.145l23.816,23.825c1.036,1.015,2.606,0.932,3.54,0
		c0.993-0.994,0.949-2.59,0.01-3.53l-0.01-0.01l-23.82-23.82c0.238-0.238,26.982-26.982,27.22-27.22
		c2.269,1.418,5.073,0.986,6.82-0.76l7.445-7.445l14.165,14.165l-4.337,4.337c-0.977,0.976-0.977,2.559,0,3.535
		c0.977,0.977,2.559,0.977,3.535,0l4.337-4.337l12.087,12.087l-10.439,10.44c-0.977,0.976-0.977,2.559,0,3.536
		c0.977,0.976,2.559,0.976,3.535,0l10.439-10.44l12.088,12.088l-4.337,4.337c-0.977,0.976-0.977,2.559,0,3.535
		c0.977,0.977,2.559,0.977,3.535,0l4.337-4.337l12.087,12.087l-10.439,10.44c-0.977,0.976-0.977,2.559,0,3.536
		c0.977,0.976,2.559,0.976,3.535,0l10.439-10.44l10.318,10.318c0.984,0.985,0.967,2.572,0,3.54l-34.92,34.92
		c-1.005,0.982-2.572,0.959-3.53,0l-39.96-39.96c-0.94-0.94-2.59-0.94-3.53,0c-1.004,1.026-0.943,2.596,0,3.54l39.95,39.95
		c2.906,2.927,7.681,2.94,10.6,0l34.921-34.92c2.953-2.954,2.902-7.707,0-10.61l-74.88-74.88l56.023-56.024l6.28,6.279
		c0.975,0.975,0.975,2.561,0,3.536l-44.638,44.637c-0.977,0.976-0.977,2.559,0,3.535c0.977,0.977,2.559,0.977,3.535,0l44.638-44.637
		c2.924-2.924,2.924-7.682,0-10.606l-6.28-6.279l3.551-3.551c2.922-2.921,2.922-7.678,0-10.6l-0.842-0.842l12.083-12.091
		C254.013,35.136,254.014,23.723,246.961,16.671z M142.583,145.72l-31.679-31.679c6.309-6.305,7.59-7.594,8.59-8.594l31.681,31.681
		L142.583,145.72z M9.486,46.151l34.919-34.919c0.976-0.975,2.561-0.975,3.536,0L58.259,21.55l-4.337,4.337
		c-0.977,0.976-0.977,2.559,0,3.535c0.976,0.977,2.56,0.977,3.535,0l4.337-4.337l12.087,12.087l-10.439,10.44
		c-0.977,0.976-0.977,2.559,0,3.535c0.976,0.977,2.56,0.977,3.535,0l10.439-10.44l12.087,12.087l-4.337,4.337
		c-0.977,0.976-0.977,2.559,0,3.535c0.976,0.977,2.56,0.977,3.535,0l4.337-4.337l12.087,12.087l-10.439,10.44
		c-0.977,0.976-0.977,2.559,0,3.535c0.976,0.977,2.56,0.977,3.535,0l10.439-10.44l15.595,15.595
		c-5.878,5.885-5.188,5.192-7.447,7.442c-1.724,1.724-2.182,4.528-0.76,6.83c-5.44,5.44-21.809,21.809-27.215,27.215L9.486,49.687
		C8.512,48.711,8.512,47.126,9.486,46.151z M10.038,246.575c-0.101-0.101,5.428-13.033,5.484-13.164l7.69,7.69
		C23.081,241.156,10.137,246.675,10.038,246.575z M62.145,226.165l-9.515-9.515c-0.95-0.94-2.59-0.94-3.54,0
		c-0.97,0.98-0.97,2.56,0,3.54l8.73,8.72L30.49,241.3l-15.167-15.167c7.214-15.924,4.324-9.547,12.387-27.333l7.24,7.24
		c0.94,0.95,2.59,0.95,3.53,0c0.997-0.977,0.976-2.574,0-3.53l-8.03-8.03c1.736-1.736,76.098-76.086,76.917-76.905l31.684,31.683
		C137.571,150.739,65.212,223.098,62.145,226.165z M231.342,50.741l-25.457-25.465l12.086-12.079c5.086-5.086,13.359-5.084,18.445,0
		l7.01,7.011c5.097,5.096,5.099,13.346,0,18.444L231.342,50.741z"/>
	<path d="M42.02,209.58c-0.946,0.946-1.002,2.517,0,3.54c0.931,0.932,2.502,1.016,3.54,0c0.97-0.98,0.97-2.56,0-3.54
		C44.61,208.64,42.96,208.64,42.02,209.58z"/>
	<path d="M158.479,202.22c0.971-0.969,0.978-2.563,0-3.54c-0.939-0.94-2.59-0.94-3.529,0c-0.99,0.969-0.986,2.576,0,3.54
		C155.93,203.201,157.515,203.185,158.479,202.22z"/>
</g>
</svg>
